<?xml version="1.0" encoding="utf-8"?>
<!-- Generator: Adobe Illustrator 17.0.0, SVG Export Plug-In . SVG Version: 6.00 Build 0)  -->
<!DOCTYPE svg PUBLIC "-//W3C//DTD SVG 1.1//EN" "http://www.w3.org/Graphics/SVG/1.1/DTD/svg11.dtd">
<svg version="1.1" id="Layer_1" xmlns="http://www.w3.org/2000/svg" xmlns:xlink="http://www.w3.org/1999/xlink" x="0px" y="0px"
	 width="1280px" height="800px" viewBox="0 0 1280 800" enable-background="new 0 0 1280 800" xml:space="preserve">
<circle fill="#3FA9F5" stroke="#0071BC" stroke-width="5" stroke-miterlimit="10" cx="640" cy="400" r="395.5"/>
<path fill="#FFFFFF" d="M910.036,485.632c-2.565-20.03-7.134-40.655-14.403-59.77c-10.588-22.61-23.772-43.412-37.258-64.01
	c-9.047-10.693-17.397-21.689-25.145-32.986c-71.681-83.846-137.366-173.118-179.144-274.032L640.174,25.57
	c-49.88,106.146-116.316,203.624-192.24,294.417l-33.927,46.188c-10.622,16.363-19.898,33.721-28.903,51.182
	c-8.88,21.667-13.479,45.225-17.08,67.876l0.101,34.062c5.606,115.899,100.258,227.228,216.132,246.821
	c10.934,4.277,23.858,4.137,35.084,5.908l41.076-0.12c11.216-1.837,24.14-1.774,35.047-6.114
	c107.343-19.252,199.624-117.81,211.728-226.047c2.685-6.419,0.757-14.931,2.943-21.047L910.036,485.632z"/>
<path fill="#3FA9F5" stroke="#29ABE2" stroke-width="4" stroke-miterlimit="10" d="M830.101,499.122
	c-1.807-14.12-5.029-28.662-10.154-42.136c-7.464-15.941-16.76-30.603-26.267-45.125c-6.38-7.538-12.263-15.291-17.726-23.256
	c-50.535-59.109-96.843-122.046-126.294-193.19l-9.808-20.63c-35.164,74.831-82.002,143.552-135.528,207.561l-23.919,32.561
	c-7.488,11.535-14.028,23.774-20.376,36.082c-6.261,15.275-9.503,31.882-12.043,47.853l0.07,24.015
	c3.953,81.709,70.682,160.194,152.371,174.007c7.709,3.015,16.818,2.917,24.734,4.165l28.959-0.086
	c7.907-1.295,17.019-1.251,24.708-4.31c75.677-13.572,140.734-83.054,149.267-159.361c1.893-4.527,0.534-10.525,2.076-14.839
	L830.101,499.122z"/>
</svg>
